HIERARCHY
ROOT pelvis
{
  OFFSET 0 100 0
  CHANNELS 6 Xposition Yposition Zposition Zrotation Xrotation Yrotation
  JOINT pelvis_right_femur
  {
    OFFSET -10.78128 -3.44521 -0.5502486
    CHANNELS 3 Zrotation Xrotation Yrotation
    JOINT right_femur_tibia
    {
      OFFSET -0.8047443 -44.0398 -0.1307829
      CHANNELS 3 Zrotation Xrotation Yrotation
      JOINT right_tibia_foot
      {
        OFFSET 3.006224 -47.83518 -5
        CHANNELS 3 Zrotation Xrotation Yrotation
        End Site
        {
          OFFSET 0 -5 15
        }
      }
    }
  }
  JOINT pelvis_left_femur
  {
    OFFSET 10.78128 -3.44521 -0.5502486
    CHANNELS 3 Zrotation Xrotation Yrotation
    JOINT left_femur_tibia
    {
      OFFSET 0.8047443 -44.0398 -0.1307829
      CHANNELS 3 Zrotation Xrotation Yrotation
      JOINT left_tibia_foot
      {
        OFFSET -4.370144 -48.10324 -4.275266
        CHANNELS 3 Zrotation Xrotation Yrotation
        End Site
        {
          OFFSET 0 -5 15
        }
      }
    }
  }
  JOINT pelvis_spine1
  {
    OFFSET 0 6.468898 -3.129235
    CHANNELS 3 Zrotation Xrotation Yrotation
    JOINT spine1
    {
      OFFSET 0 23.15396 4.99043
      CHANNELS 3 Zrotation Xrotation Yrotation
      JOINT spine2
      {
        OFFSET 0 20.79997 -5.064912
        CHANNELS 3 Zrotation Xrotation Yrotation
        JOINT neck
        {
          OFFSET 0 14.38658 9.616178
          CHANNELS 3 Zrotation Xrotation Yrotation
          End Site
          {
            OFFSET 0 20 0
          }
        }
      }
      JOINT right_manubrium
      {
        OFFSET -5.722621 16.35077 3.967754
        CHANNELS 3 Zrotation Xrotation Yrotation
        JOINT right_clavicle
        {
          OFFSET -13.16364 1.694482 -4.693211
          CHANNELS 3 Zrotation Xrotation Yrotation
          JOINT right_humerus
          {
            OFFSET -28.5034 -0.3100689 -2.792744
            CHANNELS 3 Zrotation Xrotation Yrotation
            JOINT right_radius
            {
              OFFSET -25.15693 0.02248979 -1.271978
              CHANNELS 3 Zrotation Xrotation Yrotation
              End Site
              {
                OFFSET -15 0 0
              }
            }
          }
        }
      }
      JOINT left_manubrium
      {
        OFFSET 5.722621 16.35077 3.967754
        CHANNELS 3 Zrotation Xrotation Yrotation
        JOINT left_clavicle
        {
          OFFSET 13.16364 1.694482 -4.693211
          CHANNELS 3 Zrotation Xrotation Yrotation
          JOINT left_humerus
          {
            OFFSET 29.39168 -1.063119 -2.237045
            CHANNELS 3 Zrotation Xrotation Yrotation
            JOINT left_radius
            {
              OFFSET 24.59957 -0.9528479 0.9047498
              CHANNELS 3 Zrotation Xrotation Yrotation
              End Site
              {
                OFFSET 15 -0 -0
              }
            }
          }
        }
      }
    }
  }
}
MOTION
Frames: 13
Frame Time: 0.0416666666667
0 103.5113 0 2.008524 -2.425989 0.2958634 1.650676 -13.41111 7.602726 -0 37.18966 -0 -5.873042 -16.99236 -5.81063 -6.921616 13.34275 -23.79512 -0 4.157031 -0 0.25903 -21.52185 23.08095 -4.822853 -3.396089 3.387011 2.303231 7.462957 -7.958538 1.079399 24.02422 6.771191 3.004845 -22.25011 8.308592 5.998019 -18.52964 11.0829 87.13061 34.94254 -22.05185 -0 0 14.39924 -8.268664 7.754083 5.09719 3.541927 -18.65562 -3.020914 -97.93873 41.04254 25.54819 0 0 -20.81826 -11.12681 17.01841 27.02765
0.06658963 103.1499 1.348165 1.451962 -1.87952 0.5148492 2.35094 -15.54712 7.559747 -0 37.18304 -0 -5.811103 -15.98254 -5.504136 -6.557513 13.65219 -23.87247 -0 4.150928 -0 -0.1906167 -21.77594 22.39275 -4.29737 -3.134218 3.226038 2.34827 7.454663 -7.951892 1.146936 23.70279 6.96992 3.107174 -22.82366 8.607559 6.06167 -18.52157 11.11076 86.95143 34.79059 -21.91272 -0 0 14.65678 -8.205317 8.181758 5.121382 3.845557 -18.68351 -2.850248 -98.0841 40.61932 25.74606 0 0 -20.70585 -10.41029 17.23098 26.5034
0.2286352 103.0178 3.658494 0.08046932 -0.8274828 0.8802526 3.659201 -20.25507 5.850569 -0 37.21544 -0 -6.750571 -9.217528 -3.88315 -5.449374 13.36157 -21.98624 -0 6.431847 -0 -2.117116 -21.53931 19.14478 -3.02949 -2.071517 2.461085 2.266337 7.978049 -8.039115 0.8675583 22.54238 7.810627 4.105721 -23.67468 8.475303 6.567161 -18.02247 11.3806 86.19786 35.18824 -20.81105 -0 0 14.63615 -10.6525 9.771548 6.59659 4.770729 -19.33031 -2.936019 -96.02584 36.74407 24.03665 0 0 -19.52682 -6.913573 17.12049 22.42323
0.4566253 102.8827 6.801549 -0.7890771 -0.1766 1.344774 4.457914 -23.96841 4.396371 -0 34.79097 -0 -7.646276 -4.359702 -2.761511 -4.702527 13.32784 -19.84571 -0 8.720614 -0 -3.180682 -21.32559 16.82336 -2.20655 -1.256911 1.973723 2.33433 8.447027 -8.259721 0.5967247 21.67935 8.341848 4.773049 -24.18346 8.199344 6.580586 -17.6555 11.57477 86.23136 35.16802 -20.48144 -0 0 13.99638 -12.49831 10.47257 7.719942 5.456833 -20.18153 -3.159608 -93.86536 33.25282 22.0148 0 0 -19.58428 -3.883287 16.34317 18.77388
0.7401225 102.5774 10.65671 -1.299123 0.2852271 1.807627 4.87787 -27.22516 3.098728 -0 30.23808 -0 -8.492381 -0.8883531 -1.775994 -4.270944 13.53694 -17.73635 -0 10.67521 -0 -3.268479 -21.18192 15.31247 -1.6883 -0.6633449 1.768365 2.508775 8.952708 -8.513367 0.38673 20.96659 8.628274 5.185689 -24.60772 7.920965 6.180625 -17.49136 11.72667 86.81932 34.69261 -20.63955 -0 0 13.01808 -13.71013 10.45459 8.483774 6.125001 -21.22423 -3.382846 -91.59634 29.4833 19.72139 0 0 -20.56537 -0.4388399 15.16882 14.53984
1.105424 101.9428 15.22466 -1.266458 0.06059445 2.218906 4.386519 -28.93179 1.173457 -0 24.84999 -0 -9.564131 2.756247 -0.5625036 -4.206043 13.40557 -14.99138 -0 12.20705 -0 -2.356239 -20.81746 14.33428 -1.535584 -0.2736431 1.810425 2.591738 9.892031 -8.721137 0.1325799 20.41181 8.665133 5.448382 -24.64779 7.340178 5.297869 -17.65713 11.94866 87.93215 33.32606 -20.87876 -0 0 11.68662 -15.48818 9.811021 9.45768 6.762713 -22.66171 -3.932886 -88.86175 24.31798 16.93084 0 0 -22.12294 3.898061 13.32818 8.920936
1.547851 100.7541 20.42091 -0.5269308 -1.202879 2.562486 2.809005 -28.76443 -1.640284 -0 17.97416 -0 -10.63765 6.122561 0.6827307 -4.599668 13.05066 -11.53781 -0 12.75796 -0 -0.4997156 -20.64474 13.92431 -1.769776 -0.136995 2.182795 2.502562 11.22932 -8.751489 -0.006210269 20.31459 8.246612 5.29225 -24.17579 6.58087 3.405204 -18.30493 12.16209 89.96342 29.93813 -21.38442 -0 0 9.829191 -17.82108 8.388336 10.33992 7.287959 -24.61325 -4.999543 -85.98418 18.42562 13.70468 0 0 -25.05279 8.556996 11.04084 2.684181
1.983741 98.76882 25.96386 0.90273 -3.285858 2.875951 0.6386918 -27.11871 -4.75525 -0 8.357256 -0 -10.86545 7.206894 1.084335 -5.518667 13.18555 -8.187844 -0 11.72579 -0 1.484714 -21.62782 14.09349 -2.34107 -0.2706108 2.915027 2.245172 12.21841 -8.424802 0.320732 21.09109 7.188664 4.338183 -23.34036 6.185107 0.1091238 -19.25379 12.04731 93.0524 23.99152 -22.44332 -0 0 7.444434 -19.59816 6.385469 10.16925 7.475687 -26.69708 -6.455811 -83.62254 15.0065 10.28225 0 0 -30.19251 11.49077 9.709792 -1.33377
2.317661 96.06396 31.50457 2.200311 -4.677645 3.115707 -0.6844561 -25.68803 -6.534608 0 -1.559513 0 -9.560403 4.433929 -0.05935457 -6.590103 14.84923 -6.699178 -0 8.677714 -0 2.009086 -23.96263 14.31317 -2.769116 -0.5642801 3.586532 1.996122 11.68603 -7.776436 1.23565 22.48759 5.86641 2.68268 -22.98619 6.83539 -3.508548 -19.79505 11.37662 96.00101 17.84812 -23.72595 -0 0 5.428702 -19.32171 5.020767 8.505907 7.131581 -27.63774 -7.504674 -82.54998 17.63301 7.697783 0 0 -35.84035 10.56898 11.10883 -0.09169032
2.571326 93.60564 36.94866 1.412916 -2.526623 3.014242 0.9620225 -27.44831 -4.535224 0 -2.932947 0 -7.640433 -0.2628196 -1.824973 -6.4746 17.94524 -8.667751 -0 5.5853 -0 -0.3416256 -24.85019 13.04417 -1.976725 -0.8353401 3.373641 2.318231 9.476848 -7.634 1.803379 22.623 5.733054 1.620207 -24.75255 8.386006 -3.804003 -19.26959 10.72657 95.99825 18.07322 -24.63 -0 0 5.765499 -16.33568 6.161978 6.99005 6.382615 -26.00388 -6.63635 -84.11451 24.60485 9.003986 0 0 -36.63114 6.117145 13.48244 6.263003
2.780485 92.20874 42.38271 -1.004762 1.332426 2.949858 4.670923 -30.11857 -0.106526 -0 5.573721 -0 -7.142117 -2.975829 -2.608759 -4.966181 18.99968 -11.88114 -0 8.853934 -0 -3.900998 -21.63617 10.69152 -0.2917082 -0.8192197 2.540699 3.014172 7.683665 -8.157092 1.410235 21.32975 6.906525 2.054048 -27.15127 9.405004 -0.4008115 -18.04633 10.80064 93.25743 24.54587 -24.46922 -0 0 7.594861 -13.15656 8.81616 6.99346 5.589411 -23.29975 -4.562709 -87.32639 28.48075 13.39613 0 0 -31.77471 3.101376 13.8681 11.19373
2.911275 91.57094 47.80887 -2.431666 2.279269 2.904808 6.987609 -29.21997 2.490241 -0 13.13357 -0 -8.005128 -4.88123 -3.043667 -3.746854 16.77879 -13.4033 -0 19.72158 -0 -6.401884 -17.21206 9.733004 0.701826 -0.1892609 1.932809 3.258715 6.944403 -8.204883 1.124915 21.16311 7.587674 2.763518 -27.04654 9.489469 2.479651 -16.35683 11.07892 90.76555 29.6506 -23.17682 -0 0 7.929327 -11.67951 10.46798 6.990485 4.956955 -21.41625 -3.373903 -89.18865 29.14749 15.44204 0 0 -26.16817 2.707877 14.21988 12.08322
2.999347 91.61589 53.2716 -2.868756 1.821618 2.671761 7.842643 -26.11928 3.408611 -0 17.03193 -0 -8.799424 -6.568168 -3.252627 -3.160518 12.94523 -13.68082 -0 32.18432 -0 -8.159425 -13.32624 9.604782 1.051156 0.5266633 1.878204 3.197302 6.698046 -7.890067 0.9991603 21.59161 7.854429 3.344426 -25.89898 9.18292 4.347765 -14.8748 11.3089 88.81875 32.98854 -21.68617 -0 0 7.624861 -11.31369 11.46072 6.914675 4.530478 -20.24119 -2.777616 -90.08844 28.90751 16.12706 0 0 -21.98721 2.921441 14.52599 11.76849
